<?xml version="1.0" encoding="UTF-8"?>
<svg version="1.1" xmlns="http://www.w3.org/2000/svg" width="637" height="637">
<path d="M0 0 C1.50707016 -0.00101212 1.50707016 -0.00101212 3.04458618 -0.00204468 C18.72098824 0.01466175 33.95031707 0.6323028 49.4375 3.25 C50.47181152 3.41628906 51.50612305 3.58257812 52.57177734 3.75390625 C111.18045199 13.34877795 165.87451213 39.00243093 210.4375 78.25 C211.21222656 78.91386719 211.98695313 79.57773438 212.78515625 80.26171875 C225.63748 91.48270124 238.06583549 103.68859727 248.4375 117.25 C249.2849616 118.29914197 250.13540733 119.34587808 250.98828125 120.390625 C272.19503402 146.53791038 288.9041987 176.65801861 300.4375 208.25 C300.94192627 209.62961914 300.94192627 209.62961914 301.45654297 211.03710938 C310.15515658 235.1758643 315.31878912 259.80732814 318.4375 285.25 C318.5420752 286.06476807 318.64665039 286.87953613 318.75439453 287.71899414 C319.85788996 297.6988173 319.68145498 307.78503462 319.6875 317.8125 C319.68851212 319.31957016 319.68851212 319.31957016 319.68954468 320.85708618 C319.67283825 336.53348824 319.0551972 351.76281707 316.4375 367.25 C316.18806641 368.80146729 316.18806641 368.80146729 315.93359375 370.38427734 C306.33872205 428.99295199 280.68506907 483.68701213 241.4375 528.25 C240.77363281 529.02472656 240.10976563 529.79945313 239.42578125 530.59765625 C228.20479876 543.44998 215.99890273 555.87833549 202.4375 566.25 C201.38835803 567.0974616 200.34162192 567.94790733 199.296875 568.80078125 C173.14958962 590.00753402 143.02948139 606.7166987 111.4375 618.25 C110.05788086 618.75442627 110.05788086 618.75442627 108.65039062 619.26904297 C84.5116357 627.96765658 59.88017186 633.13128912 34.4375 636.25 C33.62273193 636.3545752 32.80796387 636.45915039 31.96850586 636.56689453 C21.9886827 637.67038996 11.90246538 637.49395498 1.875 637.5 C0.87028656 637.50067474 -0.13442688 637.50134949 -1.16958618 637.50204468 C-16.84598824 637.48533825 -32.07531707 636.8676972 -47.5625 634.25 C-49.11396729 634.00056641 -49.11396729 634.00056641 -50.69677734 633.74609375 C-109.30545199 624.15122205 -163.99951213 598.49756907 -208.5625 559.25 C-209.33722656 558.58613281 -210.11195313 557.92226563 -210.91015625 557.23828125 C-223.76248 546.01729876 -236.19083549 533.81140273 -246.5625 520.25 C-247.4099616 519.20085803 -248.26040733 518.15412192 -249.11328125 517.109375 C-270.32003402 490.96208962 -287.0291987 460.84198139 -298.5625 429.25 C-299.06692627 427.87038086 -299.06692627 427.87038086 -299.58154297 426.46289062 C-308.28015658 402.3241357 -313.44378912 377.69267186 -316.5625 352.25 C-316.71936279 351.0278479 -316.71936279 351.0278479 -316.87939453 349.78100586 C-317.98288996 339.8011827 -317.80645498 329.71496538 -317.8125 319.6875 C-317.81317474 318.68278656 -317.81384949 317.67807312 -317.81454468 316.64291382 C-317.79783825 300.96651176 -317.1801972 285.73718293 -314.5625 270.25 C-314.39621094 269.21568848 -314.22992188 268.18137695 -314.05859375 267.11572266 C-304.46372205 208.50704801 -278.81006907 153.81298787 -239.5625 109.25 C-238.89863281 108.47527344 -238.23476562 107.70054688 -237.55078125 106.90234375 C-226.32979876 94.05002 -214.12390273 81.62166451 -200.5625 71.25 C-199.51335803 70.4025384 -198.46662192 69.55209267 -197.421875 68.69921875 C-171.27458962 47.49246598 -141.15448139 30.7833013 -109.5625 19.25 C-108.18288086 18.74557373 -108.18288086 18.74557373 -106.77539062 18.23095703 C-82.6366357 9.53234342 -58.00517186 4.36871088 -32.5625 1.25 C-31.3403479 1.09313721 -31.3403479 1.09313721 -30.09350586 0.93310547 C-20.1136827 -0.17038996 -10.02746538 0.00604502 0 0 Z " fill="#FBFCFC" transform="translate(317.5625,-0.25)"/>
<path d="M0 0 C1.50707016 -0.00101212 1.50707016 -0.00101212 3.04458618 -0.00204468 C18.72098824 0.01466175 33.95031707 0.6323028 49.4375 3.25 C50.47181152 3.41628906 51.50612305 3.58257812 52.57177734 3.75390625 C111.18045199 13.34877795 165.87451213 39.00243093 210.4375 78.25 C211.21222656 78.91386719 211.98695313 79.57773438 212.78515625 80.26171875 C225.63748 91.48270124 238.06583549 103.68859727 248.4375 117.25 C249.2849616 118.29914197 250.13540733 119.34587808 250.98828125 120.390625 C272.19503402 146.53791038 288.9041987 176.65801861 300.4375 208.25 C300.94192627 209.62961914 300.94192627 209.62961914 301.45654297 211.03710938 C310.15515658 235.1758643 315.31878912 259.80732814 318.4375 285.25 C318.5420752 286.06476807 318.64665039 286.87953613 318.75439453 287.71899414 C319.85788996 297.6988173 319.68145498 307.78503462 319.6875 317.8125 C319.68851212 319.31957016 319.68851212 319.31957016 319.68954468 320.85708618 C319.67283825 336.53348824 319.0551972 351.76281707 316.4375 367.25 C316.18806641 368.80146729 316.18806641 368.80146729 315.93359375 370.38427734 C306.33872205 428.99295199 280.68506907 483.68701213 241.4375 528.25 C240.77363281 529.02472656 240.10976563 529.79945313 239.42578125 530.59765625 C228.20479876 543.44998 215.99890273 555.87833549 202.4375 566.25 C201.38835803 567.0974616 200.34162192 567.94790733 199.296875 568.80078125 C173.14958962 590.00753402 143.02948139 606.7166987 111.4375 618.25 C110.05788086 618.75442627 110.05788086 618.75442627 108.65039062 619.26904297 C84.5116357 627.96765658 59.88017186 633.13128912 34.4375 636.25 C33.62273193 636.3545752 32.80796387 636.45915039 31.96850586 636.56689453 C21.9886827 637.67038996 11.90246538 637.49395498 1.875 637.5 C0.87028656 637.50067474 -0.13442688 637.50134949 -1.16958618 637.50204468 C-16.84598824 637.48533825 -32.07531707 636.8676972 -47.5625 634.25 C-49.11396729 634.00056641 -49.11396729 634.00056641 -50.69677734 633.74609375 C-109.30545199 624.15122205 -163.99951213 598.49756907 -208.5625 559.25 C-209.33722656 558.58613281 -210.11195313 557.92226563 -210.91015625 557.23828125 C-223.76248 546.01729876 -236.19083549 533.81140273 -246.5625 520.25 C-247.4099616 519.20085803 -248.26040733 518.15412192 -249.11328125 517.109375 C-270.32003402 490.96208962 -287.0291987 460.84198139 -298.5625 429.25 C-299.06692627 427.87038086 -299.06692627 427.87038086 -299.58154297 426.46289062 C-308.28015658 402.3241357 -313.44378912 377.69267186 -316.5625 352.25 C-316.71936279 351.0278479 -316.71936279 351.0278479 -316.87939453 349.78100586 C-317.98288996 339.8011827 -317.80645498 329.71496538 -317.8125 319.6875 C-317.81317474 318.68278656 -317.81384949 317.67807312 -317.81454468 316.64291382 C-317.79783825 300.96651176 -317.1801972 285.73718293 -314.5625 270.25 C-314.39621094 269.21568848 -314.22992188 268.18137695 -314.05859375 267.11572266 C-304.46372205 208.50704801 -278.81006907 153.81298787 -239.5625 109.25 C-238.89863281 108.47527344 -238.23476562 107.70054688 -237.55078125 106.90234375 C-226.32979876 94.05002 -214.12390273 81.62166451 -200.5625 71.25 C-199.51335803 70.4025384 -198.46662192 69.55209267 -197.421875 68.69921875 C-171.27458962 47.49246598 -141.15448139 30.7833013 -109.5625 19.25 C-108.18288086 18.74557373 -108.18288086 18.74557373 -106.77539062 18.23095703 C-82.6366357 9.53234342 -58.00517186 4.36871088 -32.5625 1.25 C-31.3403479 1.09313721 -31.3403479 1.09313721 -30.09350586 0.93310547 C-20.1136827 -0.17038996 -10.02746538 0.00604502 0 0 Z M-173.5625 116.25 C-174.09004883 116.67168457 -174.61759766 117.09336914 -175.16113281 117.52783203 C-191.64560739 130.83135754 -207.17586826 146.03713883 -219.5625 163.25 C-220.40269383 164.38482004 -221.24385711 165.5189229 -222.0859375 166.65234375 C-237.82312924 188.03390535 -250.43962399 211.31339855 -259.5625 236.25 C-260.02011719 237.47074219 -260.47773438 238.69148437 -260.94921875 239.94921875 C-270.21109841 266.04025515 -273.74796495 292.63296107 -273.80273438 320.17285156 C-273.81236531 323.08428354 -273.84344157 325.99498494 -273.875 328.90625 C-273.95023715 342.24825722 -272.76997923 355.09585262 -270.5625 368.25 C-270.36897949 369.40322754 -270.17545898 370.55645508 -269.97607422 371.74462891 C-269.49352765 374.38615148 -268.95900006 377.00421598 -268.375 379.625 C-268.1692334 380.55578369 -267.9634668 381.48656738 -267.75146484 382.44555664 C-263.85219055 399.28946576 -258.00297703 415.65416852 -250.5625 431.25 C-250.12284912 432.19069336 -250.12284912 432.19069336 -249.67431641 433.15039062 C-239.63758685 454.53463687 -226.80563717 474.23087687 -211.5625 492.25 C-210.62620691 493.37361861 -209.69001396 494.49732069 -208.75390625 495.62109375 C-198.92668967 507.33847035 -188.567353 517.74615804 -176.5625 527.25 C-173.89116741 529.46735613 -171.22317763 531.68860204 -168.55859375 533.9140625 C-133.53532002 561.22034371 -92.08765395 579.23280786 -48.5625 587.25 C-47.71993652 587.40984375 -46.87737305 587.5696875 -46.00927734 587.734375 C-5.89837098 595.29539899 37.39772654 592.81073792 76.4375 581.25 C77.41734863 580.96141113 78.39719727 580.67282227 79.40673828 580.37548828 C95.05264143 575.67230589 109.78641543 569.44944579 124.4375 562.25 C125.23269043 561.86199219 126.02788086 561.47398437 126.84716797 561.07421875 C147.90531577 550.69415199 166.80773821 536.65839008 184.4375 521.25 C185.41460937 520.39792969 186.39171875 519.54585937 187.3984375 518.66796875 C200.050492 507.35574307 211.43037538 494.95425059 221.4375 481.25 C222.13230469 480.32832031 222.82710937 479.40664063 223.54296875 478.45703125 C228.62006698 471.65155915 233.15082852 464.57554338 237.4375 457.25 C237.82695801 456.58613281 238.21641602 455.92226563 238.61767578 455.23828125 C253.22440307 430.14184786 263.7476396 403.73858111 269.4375 375.25 C269.73631775 373.82668389 270.03574916 372.40349642 270.3359375 370.98046875 C271.12158276 367.0794678 271.80882056 363.17924651 272.4375 359.25 C272.64375 357.9609375 272.85 356.671875 273.0625 355.34375 C276.53204857 330.51642754 275.69378513 303.87995031 271.4375 279.25 C271.23664795 277.99558105 271.23664795 277.99558105 271.03173828 276.71582031 C264.555189 236.69467095 246.10267519 197.24664977 221.4375 165.25 C220.84066406 164.47269531 220.24382812 163.69539063 219.62890625 162.89453125 C208.38725617 148.56785454 196.32528277 135.05950542 182.4375 123.25 C181.5403125 122.45207031 180.643125 121.65414062 179.71875 120.83203125 C171.24276815 113.36470223 162.15633277 106.97817518 152.73193359 100.76513672 C150.68198584 99.41144702 148.64716335 98.03777382 146.61328125 96.66015625 C112.64744159 74.11873783 71.73077356 60.94947121 31.4375 56.25 C30.68621826 56.14905029 29.93493652 56.04810059 29.16088867 55.9440918 C21.16012125 54.96931339 13.11167121 55.06392945 5.06420898 55.06469727 C2.53676973 55.06253151 0.00978311 55.04438221 -2.51757812 55.02539062 C-64.18190891 54.81322117 -125.64448631 77.74293702 -173.5625 116.25 Z " fill="#010000" transform="translate(317.5625,-0.25)"/>
<path d="M0 0 C1.77470396 0.0002824 3.54940804 0.00012311 5.32411194 -0.0004425 C10.12095699 -0.00072843 14.91777684 0.00513514 19.71461606 0.01213145 C24.73543751 0.01839915 29.75625959 0.01897149 34.77708435 0.02015686 C44.2753526 0.02326012 53.77360929 0.03145993 63.27187246 0.04150635 C74.08928612 0.05269874 84.90670034 0.05818581 95.72411835 0.06320179 C117.96769667 0.0736434 140.2112646 0.09122334 162.45483398 0.11352539 C163.26401287 1.710445 164.07074244 3.30860587 164.87643433 4.9072876 C165.55069867 6.24205076 165.55069867 6.24205076 166.23858452 7.60377884 C167.61407146 10.44211398 168.66541193 13.27006761 169.58764648 16.28540039 C169.91748535 17.35483887 170.24732422 18.42427734 170.5871582 19.52612305 C171.07853271 21.17813721 171.07853271 21.17813721 171.57983398 22.86352539 C172.1002124 24.59094971 172.1002124 24.59094971 172.63110352 26.35327148 C174.96939996 34.22208935 177.11372311 42.0063589 178.45483398 50.11352539 C178.7584082 51.73000977 178.7584082 51.73000977 179.06811523 53.37915039 C186.134093 97.79386777 176.48456823 145.2238254 154.45483398 184.11352539 C153.99979492 185.01458008 153.54475586 185.91563477 153.07592773 186.84399414 C140.70609998 211.25132592 119.92364256 233.4393156 98.45483398 250.11352539 C97.49706055 250.89985352 96.53928711 251.68618164 95.55249023 252.49633789 C74.69554248 269.27658085 49.31335379 281.05591396 23.82983398 288.80102539 C22.91975586 289.0866333 22.00967773 289.37224121 21.07202148 289.66650391 C10.84088751 292.66610234 1.34263965 293.55812458 -9.54516602 295.11352539 C-9.54516602 263.76352539 -9.54516602 232.41352539 -9.54516602 200.11352539 C-4.92516602 199.12352539 -0.30516602 198.13352539 4.45483398 197.11352539 C32.741148 188.90136971 56.93217445 171.96114645 71.62768555 146.04516602 C85.64551256 119.62836865 86.71667798 93.51749729 84.45483398 64.11352539 C64.65483398 64.11352539 44.85483398 64.11352539 24.45483398 64.11352539 C24.78483398 65.76352539 25.11483398 67.41352539 25.45483398 69.11352539 C26.33986846 81.47715185 26.50535562 93.62151877 21.45483398 105.11352539 C21.09260742 105.98750977 20.73038086 106.86149414 20.35717773 107.76196289 C13.35897336 123.18173524 0.90865077 133.23124503 -14.58422852 139.30493164 C-31.25222576 144.9064717 -47.59916517 143.29313203 -63.30297852 135.79711914 C-78.98916892 127.16725577 -88.99361535 112.91113576 -94.54516602 96.11352539 C-98.08940132 80.86188059 -96.81317934 63.40395781 -90.54516602 49.11352539 C-90.04887695 47.97915039 -89.55258789 46.84477539 -89.04125977 45.67602539 C-84.86838769 37.14928921 -79.22560038 30.71594008 -72.54516602 24.11352539 C-71.8993457 23.45739258 -71.25352539 22.80125977 -70.58813477 22.12524414 C-51.17175668 3.72410151 -25.63042567 -0.05720931 0 0 Z " fill="#010101" transform="translate(355.545166015625,238.886474609375)"/>
<path d="M0 0 C38.61 0 77.22 0 117 0 C115.96743213 3.09770362 114.79780786 4.29113362 112.51171875 6.51171875 C93.12574754 25.59713227 85.05499787 51.38105808 84.75805664 78.02172852 C84.68601586 110.24141978 94.03660636 137.20076038 116 161 C116.64195312 161.72316406 117.28390625 162.44632813 117.9453125 163.19140625 C132.49252623 178.77770667 152.08558815 188.36186272 172 195 C172 228 172 261 172 295 C154.61487435 292.68198325 154.61487435 292.68198325 147.5 290.6875 C146.7052124 290.4709375 145.9104248 290.254375 145.09155273 290.03125 C137.62812186 287.96351137 130.28317707 285.63541552 123 283 C122.08089844 282.66871094 121.16179687 282.33742188 120.21484375 281.99609375 C98.2397748 273.4273978 78.20473543 260.83924111 60 246 C58.81776417 245.04940972 57.63547287 244.09888842 56.453125 243.1484375 C55.34291709 242.24581517 54.23350697 241.34221044 53.125 240.4375 C52.13757813 239.63183594 51.15015625 238.82617188 50.1328125 237.99609375 C49.42898437 237.33738281 48.72515625 236.67867187 48 236 C48 235.34 48 234.68 48 234 C47.44570312 233.77957031 46.89140625 233.55914062 46.3203125 233.33203125 C23.50787098 220.23600001 5.42926897 181.8458287 -3.5625 158.69921875 C-4.50869152 156.26431828 -5.50912869 153.84969928 -6.56640625 151.4609375 C-10.60828786 141.70315248 -12.29163961 130.91171858 -14.1875 120.5625 C-14.35435303 119.65169678 -14.52120605 118.74089355 -14.69311523 117.80249023 C-21.56081794 79.13502888 -17.6883254 35.3766508 0 0 Z " fill="#010101" transform="translate(117,239)"/>
<path d="M0 0 C2.9595195 0.01069823 5.9184288 0.00006116 8.87792969 -0.01269531 C23.2198576 -0.02386551 37.0476377 1.00753313 51.09667969 4.07324219 C51.89017822 4.24500977 52.68367676 4.41677734 53.5012207 4.59375 C92.37461776 13.27976137 127.20564185 33.19697055 156.28417969 60.13574219 C157.31019287 61.08187378 157.31019287 61.08187378 158.35693359 62.04711914 C158.99679199 62.65128662 159.63665039 63.2554541 160.29589844 63.87792969 C160.86139404 64.41015137 161.42688965 64.94237305 162.00952148 65.49072266 C163.59667969 67.26074219 163.59667969 67.26074219 166.59667969 72.26074219 C59.01667969 72.26074219 -48.56332031 72.26074219 -159.40332031 72.26074219 C-141.35762696 45.19220216 -106.30806552 25.67130425 -76.40332031 14.26074219 C-75.71351074 13.99406738 -75.02370117 13.72739258 -74.31298828 13.45263672 C-60.95837677 8.34386385 -47.47529065 4.78247337 -33.40332031 2.26074219 C-32.40574707 2.07237793 -31.40817383 1.88401367 -30.38037109 1.68994141 C-20.26342428 -0.01055062 -10.23559679 -0.0439296 0 0 Z " fill="#010000" transform="translate(314.4033203125,110.7392578125)"/>
</svg>
